<svg xmlns="http://www.w3.org/2000/svg" viewBox="0 0 24 24" fill="none" stroke="#000000" stroke-linecap="round" stroke-linejoin="round" id="File-Search--Streamline-Lucide" height="24" width="24">
  <desc>
    File Search Streamline Icon: https://streamlinehq.com
  </desc>
  <path d="M14 2v4a2 2 0 0 0 2 2h4" stroke-width="2"></path>
  <path d="M4.268 21a2 2 0 0 0 1.727 1H18a2 2 0 0 0 2 -2V7l-5 -5H6a2 2 0 0 0 -2 2v3" stroke-width="2"></path>
  <path d="m9 18 -1.5 -1.5" stroke-width="2"></path>
  <path d="M2 14a3 3 0 1 0 6 0 3 3 0 1 0 -6 0" stroke-width="2"></path>
</svg>